<?xml version="1.0" standalone="no"?>
<!DOCTYPE svg PUBLIC "-//W3C//DTD SVG 20010904//EN"
 "http://www.w3.org/TR/2001/REC-SVG-20010904/DTD/svg10.dtd">
<svg version="1.0" xmlns="http://www.w3.org/2000/svg"
 width="500.000000pt" height="500.000000pt" viewBox="0 0 500.000000 500.000000"
 preserveAspectRatio="xMidYMid meet">

<g transform="translate(0.000000,500.000000) scale(0.100000,-0.100000)"
fill="#000000" stroke="none">
<path d="M2315 4418 c-129 -19 -281 -57 -380 -95 -22 -8 -58 -22 -79 -30 -47
-17 -252 -119 -269 -133 -7 -6 -43 -31 -82 -57 -38 -25 -79 -54 -90 -64 -59
-53 -273 -269 -293 -294 -12 -17 -36 -47 -52 -69 -17 -21 -30 -42 -30 -47 0
-4 -11 -20 -24 -36 -41 -48 -166 -287 -166 -317 0 -6 44 -31 98 -54 53 -24
118 -54 143 -68 26 -13 52 -24 57 -24 6 0 66 -26 134 -58 68 -33 150 -71 183
-86 33 -15 83 -38 110 -51 28 -13 73 -33 100 -45 28 -12 77 -34 110 -50 33
-15 96 -44 140 -64 44 -20 103 -48 130 -61 28 -13 86 -40 130 -59 44 -20 97
-45 117 -56 20 -11 41 -20 46 -20 6 0 80 -34 167 -75 86 -41 158 -75 160 -75
2 0 39 -16 82 -36 43 -19 103 -47 133 -60 30 -14 81 -38 112 -55 31 -16 61
-29 67 -29 6 0 69 -28 139 -62 l127 -63 118 -3 c101 -3 116 -2 111 11 -3 9
-12 18 -20 21 -8 3 -19 16 -24 28 -6 13 -39 61 -75 108 -35 47 -97 130 -137
185 -39 55 -76 105 -82 110 -7 6 -34 42 -61 80 -46 66 -70 98 -116 155 -24 29
-146 194 -236 319 -35 47 -71 95 -81 106 -10 11 -51 66 -92 123 -141 195 -165
225 -175 222 -5 -2 -37 -41 -70 -88 -89 -123 -173 -242 -234 -330 -98 -139
-152 -202 -173 -202 -11 0 -57 17 -102 39 -44 21 -99 46 -121 55 -22 9 -63 28
-90 42 -28 13 -53 24 -57 24 -3 0 -57 24 -119 54 -121 57 -201 94 -286 132
-48 22 -53 27 -53 57 0 28 11 53 42 92 5 6 38 51 74 100 101 139 276 298 422
386 185 110 403 197 550 219 31 5 88 14 127 21 82 13 361 7 450 -10 142 -28
266 -62 330 -91 106 -48 221 -104 245 -120 14 -9 57 -37 95 -62 80 -52 130
-95 218 -187 34 -36 73 -76 87 -90 27 -28 33 -36 95 -126 49 -71 71 -109 133
-230 36 -71 82 -207 114 -340 30 -126 31 -137 31 -355 0 -218 -1 -229 -31
-355 -17 -71 -45 -168 -62 -214 -132 -361 -419 -681 -775 -864 -107 -55 -200
-97 -215 -97 -6 0 -43 -11 -83 -25 -212 -75 -682 -75 -888 0 -39 14 -77 25
-85 25 -8 0 -39 11 -67 24 -29 13 -72 33 -97 45 -261 119 -498 326 -674 588
-50 75 -146 260 -146 282 0 5 -13 45 -29 88 -70 186 -99 501 -66 714 9 61 15
112 13 113 -1 2 -34 17 -73 35 -38 18 -83 39 -99 47 -37 19 -39 15 -60 -90
-28 -142 -35 -245 -26 -391 22 -359 124 -668 319 -959 40 -61 82 -120 92 -131
205 -220 325 -325 461 -405 40 -24 85 -51 100 -61 15 -11 30 -19 33 -19 4 0
30 -11 58 -24 67 -32 190 -79 247 -95 25 -7 56 -17 70 -22 14 -5 79 -19 145
-31 146 -27 464 -32 580 -10 39 8 96 18 127 22 202 29 562 191 725 326 27 22
66 53 88 69 57 42 186 175 242 248 26 34 52 67 59 72 36 32 234 392 234 426 0
8 6 25 13 39 13 26 33 87 41 130 3 14 16 69 30 123 45 177 45 606 0 756 -8 30
-22 82 -29 115 -14 62 -54 184 -82 246 -29 66 -95 195 -108 210 -6 8 -28 42
-48 76 -20 33 -46 72 -59 86 -13 14 -59 67 -103 117 -44 51 -115 122 -159 159
-43 37 -90 77 -105 90 -44 38 -49 42 -134 94 -225 140 -442 221 -692 258 -201
31 -368 33 -540 8z m176 -1140 c9 -7 33 -38 54 -68 35 -50 73 -99 108 -140 7
-8 35 -46 62 -85 27 -38 72 -100 100 -137 27 -36 64 -85 80 -108 17 -22 41
-56 55 -74 14 -18 44 -58 68 -89 66 -88 53 -112 -39 -68 -31 14 -75 34 -100
44 -49 21 -105 46 -229 105 -99 47 -188 87 -285 131 -155 71 -185 87 -185 100
0 16 127 209 156 236 6 5 32 42 59 80 62 90 69 95 96 73z"/>
<path d="M1723 2564 c-10 -14 -39 -53 -64 -87 -25 -34 -69 -96 -98 -137 -28
-41 -78 -113 -111 -160 l-59 -85 96 -3 c115 -3 114 -5 219 151 38 56 74 107
80 112 6 6 35 45 63 87 l51 77 -48 22 c-118 53 -109 52 -129 23z"/>
</g>
</svg>
